Results
version=1
nRows=17
nColumns=24
inDegrees=yes
endheader
time	pelvis_tilt	pelvis_list	pelvis_rotation	pelvis_tx	pelvis_ty	pelvis_tz	hip_flexion_r	hip_adduction_r	hip_rotation_r	knee_angle_r	ankle_angle_r	subtalar_angle_r	mtp_angle_r	hip_flexion_l	hip_adduction_l	hip_rotation_l	knee_angle_l	ankle_angle_l	subtalar_angle_l	mtp_angle_l	lumbar_extension	lumbar_bending	lumbar_rotation
      0.55000000	      0.83098498	      5.06214845	      8.21856993	     -0.93292042	      1.01342830	      0.29978713	     25.48525970	     -6.03634911	    -15.11109431	     -3.11499654	      5.15953319	      7.82954612	     12.45023127	    -12.93457526	      9.21636093	     11.30482426	     -9.96434884	     13.41016340	     -5.54505539	      0.39728526	     -5.67578568	     -8.31097912	     -5.81089880
      0.55416667	      0.84483577	      4.96483613	      8.36115974	     -0.92728291	      1.01306893	      0.29969329	     25.44730679	     -5.91209747	    -14.81185807	     -3.67344951	      5.13701879	      7.35145316	     12.46055337	    -13.08378105	      9.07172621	     11.45496808	    -10.38269758	     13.49697412	     -5.55476199	      0.39787067	     -5.66208485	     -8.18049418	     -6.03569268
      0.55833333	      0.88979881	      4.85999370	      8.47332542	     -0.92155402	      1.01277322	      0.29963643	     25.37057320	     -5.76303778	    -14.50576131	     -4.24154728	      5.07655892	      6.89245980	     12.47207828	    -13.26787159	      8.91975749	     11.57250861	    -10.79326012	     13.50461033	     -5.63982142	      0.39557803	     -5.66430559	     -8.03297044	     -6.15919648
      0.56250000	      0.92920111	      4.75756406	      8.57515533	     -0.91577114	      1.01247626	      0.29959362	     25.29923251	     -5.61040585	    -14.16504643	     -4.83065203	      5.01358673	      6.40099987	     12.48286849	    -13.44439963	      8.77552798	     11.71377501	    -11.21673500	     13.51812665	     -5.71962073	      0.39645760	     -5.65121248	     -7.88843523	     -6.24120417
      0.56666667	      0.97340030	      4.64148288	      8.66889752	     -0.90990531	      1.01222705	      0.29958112	     25.20071222	     -5.42980888	    -13.79344205	     -5.38328597	      4.84833119	      5.81674529	     12.49516218	    -13.61540292	      8.61371242	     11.79740753	    -11.65310898	     13.47982221	     -5.80250509	      0.39905400	     -5.62751145	     -7.73563738	     -6.32756321
      0.57083333	      1.02231631	      4.53261141	      8.76098758	     -0.90401641	      1.01200157	      0.29958430	     25.09487832	     -5.25159605	    -13.40897877	     -5.94011436	      4.67957431	      5.21085446	     12.50823217	    -13.78729027	      8.46065675	     11.92322914	    -12.10627274	     13.44307522	     -5.87919669	      0.40886408	     -5.60909681	     -7.58630878	     -6.39744299
      0.57500000	      0.08958606	      4.16058274	      7.99722909	     -0.89590777	      1.01024832	      0.29950165	     26.14857237	     -4.63261812	    -12.23088577	     -6.58048597	      4.35230025	      4.65065617	     12.53595271	    -13.17014293	      8.45045155	     11.23497357	    -12.11535623	     13.14025124	     -6.26585596	      0.41278130	     -3.94734328	     -7.17519844	     -5.53982014
      0.57916667	      0.12373024	      4.07483278	      8.12611049	     -0.89011874	      1.01008879	      0.29951993	     26.04045235	     -4.48607074	    -11.83424725	     -7.09719012	      4.04206268	      3.94910174	     12.54675987	    -13.27443032	      8.32003171	     11.36955305	    -12.66577382	     13.05229436	     -6.32737355	      0.43864965	     -3.93463235	     -7.07192175	     -5.67858513
      0.58333333	      0.13901702	      3.97763344	      8.24826148	     -0.88422263	      1.00993134	      0.29957548	     25.94170039	     -4.32006587	    -11.43891183	     -7.59012356	      3.69277909	      3.21477229	     12.56001473	    -13.36148691	      8.17837672	     11.50703218	    -13.21022217	     12.93488467	     -6.38987834	      0.47169667	     -3.87337618	     -6.95085618	     -5.77680437
      0.58750000	      0.13584004	      3.87562875	      8.34296402	     -0.87824142	      1.00976680	      0.29969574	     25.85317711	     -4.13292426	    -11.00459089	     -8.04882705	      3.26609176	      2.42707378	     12.57799953	    -13.42043239	      8.03583305	     11.58546434	    -13.76701682	     12.77002612	     -6.44249290	      0.51997458	     -3.77638547	     -6.84012794	     -5.86864429
      0.59166667	      0.17736192	      3.77164116	      8.42506207	     -0.87221965	      1.00969613	      0.29986359	     25.70630390	     -3.92822849	    -10.57461945	     -8.47464341	      2.78500992	      1.63000134	     12.60175067	    -13.51736071	      7.88161284	     11.62801922	    -14.34053708	     12.58318199	     -6.46539208	      0.58773396	     -3.72604045	     -6.71920019	     -5.93825223
      0.59583333	      0.15724724	      3.67234035	      8.48822411	     -0.86612831	      1.00954638	      0.30009141	     25.62763767	     -3.72383535	    -10.11555225	     -8.89572105	      2.26912755	      0.82353778	     12.63517065	    -13.53818378	      7.74338192	     11.63991499	    -14.93394801	     12.36972180	     -6.47242906	      0.68314446	     -3.58740490	     -6.62454390	     -5.99845775
      0.60000000	      0.16715603	      3.56799432	      8.53978343	     -0.85999941	      1.00947746	      0.30035921	     25.50596487	     -3.50343429	     -9.66425393	     -9.28331284	      1.70337142	      0.01152943	     12.67574206	    -13.57970066	      7.59255244	     11.61894362	    -15.54144964	     12.11902968	     -6.45148283	      0.80661423	     -3.48509076	     -6.51541462	     -6.03463794
      0.60416667	     -1.33219789	      2.40706563	      7.72889039	     -0.85071168	      1.00571929	      0.30152575	     27.07306173	     -1.99497352	     -8.50828256	     -9.61502491	      0.99503973	     -1.11798180	     12.94007598	    -11.99966614	      6.64911871	      9.62572233	    -16.22884940	     12.61911800	     -5.15215036	      2.81978266	     -0.87353071	     -5.39276998	     -5.25684857
      0.60833333	     -1.31792723	      2.32727475	      7.84761296	     -0.84473703	      1.00575338	      0.30177471	     26.93374053	     -1.82679937	     -8.10355539	     -9.96681719	      0.33753914	     -2.01385887	     12.94478744	    -11.99208758	      6.51206919	      9.71726703	    -16.92524926	     12.27657939	     -5.24540079	      2.93768369	     -0.78834046	     -5.32247947	     -5.23487487
      0.61250000	     -1.30049876	      2.25266091	      7.93588424	     -0.83868630	      1.00580611	      0.30209791	     26.79602172	     -1.65383657	     -7.71288553	    -10.32961315	     -0.27728086	     -2.77906321	     12.96079875	    -11.96322876	      6.37242893	      9.67621889	    -17.66815575	     11.93048468	     -5.17750564	      3.10123123	     -0.70537357	     -5.26812137	     -5.30644947
      0.61666667	     -1.26971273	      2.16154636	      7.99774947	     -0.83253850	      1.00591080	      0.30247317	     26.63519640	     -1.45166166	     -7.32713124	    -10.67322140	     -0.89810899	     -3.51812508	     12.98325762	    -11.93999934	      6.20987328	      9.56885169	    -18.41520830	     11.54543487	     -5.05936505	      3.31021570	     -0.61778058	     -5.19421009	     -5.35174926
